# xmcd
#
# Track frame offsets:
#	150
#	14015
#	31097
#	47605
#	71780
#	92020
#	102192
#	121102
#	147315
#	161012
#
# Disc length: 2414 seconds
#
# Revision: 1
# Processed by: cddbd v1.5.2PL0 Copyright (c) Steve Scherf et al.
# Submitted via: audiograbber 1.83.01
#
DISCID=80096c0a
DTITLE=Tim Kaufman - Give Your Heart A Home
DYEAR=1900
DGENRE=Southern Gospel
TTITLE0=I Sing The Mighty Power Of God
TTITLE1=Be Still My Child
TTITLE2=Fellowship
TTITLE3=I Lost It All To Find Everything
TTITLE4=I Am Determined
TTITLE5=Come And Dine
TTITLE6=Give Your Heart A Home
TTITLE7=Lord Renew Me
TTITLE8=A Burden For Souls
TTITLE9=I Dedicate
EXTD=
EXTT0=
EXTT1=
EXTT2=
EXTT3=
EXTT4=
EXTT5=
EXTT6=
EXTT7=
EXTT8=
EXTT9=
PLAYORDER=
